Coordinates
version=1
nRows=9
nColumns=63
inDegrees=yes

Units are S.I. units (second, meters, Newtons, ...)
If the header above contains a line with 'inDegrees', this indicates whether rotational values are in degrees (yes) or radians (no).

endheader
time	pelvis_tilt	pelvis_list	pelvis_rotation	pelvis_tx	pelvis_ty	pelvis_tz	hip_flexion_r	hip_adduction_r	hip_rotation_r	knee_angle_r	knee_angle_r_beta	ankle_angle_r	subtalar_angle_r	mtp_angle_r	hip_flexion_l	hip_adduction_l	hip_rotation_l	knee_angle_l	knee_angle_l_beta	ankle_angle_l	subtalar_angle_l	mtp_angle_l	L5_S1_Flex_Ext	L5_S1_Lat_Bending	L5_S1_axial_rotation	L4_L5_Flex_Ext	L4_L5_Lat_Bending	L4_L5_axial_rotation	L3_L4_Flex_Ext	L3_L4_Lat_Bending	L3_L4_axial_rotation	L2_L3_Flex_Ext	L2_L3_Lat_Bending	L2_L3_axial_rotation	L1_L2_Flex_Ext	L1_L2_Lat_Bending	L1_L2_axial_rotation	L1_T12_Flex_Ext	L1_T12_Lat_Bending	L1_T12_axial_rotation	Abs_r3	Abs_r2	Abs_r1	Abs_t1	Abs_t2	neck_flexion	neck_bending	neck_rotation	arm_flex_r	arm_add_r	arm_rot_r	elbow_flex_r	pro_sup_r	wrist_flex_r	wrist_dev_r	arm_flex_l	arm_add_l	arm_rot_l	elbow_flex_l	pro_sup_l	wrist_flex_l	wrist_dev_l
2.457627	5.281545	-4.066883	112.223070	0.241583	0.496675	0.904561	2.235836	3.831884	-25.264299	7.596809	0.132589	16.393692	6.494773	0.000000	7.323864	-3.660138	8.458730	9.302049	0.162351	20.381323	12.737718	0.000000	-1.559776	1.352976	10.599323	-2.896660	1.799458	11.261780	-2.562556	3.289625	11.261780	-1.782668	3.289625	9.274407	-1.448408	2.758988	8.611950	-0.891256	2.095759	7.949492	-11.141325	15.305133	58.950253	0.000000	0.000000	-4.047176	-0.878974	-44.630376	-38.354947	-45.451305	-51.143292	140.781398	70.428028	-6.015872	12.845912	53.417754	38.449716	196.554566	0.036230	0.581605	-69.931642	-24.721962
2.474576	5.295588	-4.001802	112.128588	0.241631	0.496616	0.904446	2.175659	3.888077	-24.980430	7.552489	0.131816	16.440048	6.235630	0.000000	7.267697	-3.709832	8.461003	9.386148	0.163819	20.481404	12.722477	0.000000	-1.565215	1.352671	10.618849	-2.906762	1.799052	11.282527	-2.571493	3.288883	11.282527	-1.788885	3.288883	9.291493	-1.453459	2.758366	8.627815	-0.894364	2.095287	7.964137	-11.180178	15.301679	59.058852	0.000000	0.000000	-4.312780	-1.013905	-44.627618	-38.199534	-45.286654	-51.277787	141.074029	71.995276	-6.380494	13.270993	53.369568	38.506105	196.739208	0.035967	0.578916	-69.932161	-24.728402
2.491525	5.322665	-3.959001	112.029006	0.241684	0.496491	0.904225	2.133610	3.950287	-24.762160	7.518645	0.131225	16.456022	6.058265	0.000000	7.238960	-3.764767	8.495319	9.486717	0.165574	20.601824	12.692094	0.000000	-1.569131	1.349567	10.630036	-2.914034	1.794925	11.294413	-2.577926	3.281338	11.294413	-1.793360	3.281338	9.301282	-1.457095	2.752038	8.636904	-0.896602	2.090480	7.972527	-11.208149	15.266577	59.121071	0.000000	0.000000	-4.464920	-1.027063	-44.619810	-38.050302	-45.125266	-51.403750	141.303217	73.459984	-6.732694	13.443923	53.352235	38.550380	196.737290	0.035741	0.574375	-69.932363	-24.729549
2.508475	5.353902	-3.928120	111.939322	0.241726	0.496317	0.903897	2.091981	4.011272	-24.663111	7.493205	0.130781	16.448720	6.027238	0.000000	7.226957	-3.817819	8.577310	9.602627	0.167597	20.745257	12.640531	0.000000	-1.573498	1.345339	10.632760	-2.922144	1.789301	11.297308	-2.585100	3.271058	11.297308	-1.798351	3.271058	9.303665	-1.461151	2.743416	8.639118	-0.899097	2.083931	7.974570	-11.239342	15.218748	59.136223	0.000000	0.000000	-4.518718	-0.945414	-44.608403	-37.925917	-44.946085	-51.516653	141.492206	74.473037	-7.077951	13.490880	53.357473	38.565867	196.600419	0.035552	0.566264	-69.932331	-24.725672
2.525424	5.390285	-3.904042	111.869294	0.241742	0.496113	0.903484	2.050013	4.076651	-24.637786	7.476688	0.130493	16.404386	6.064733	0.000000	7.227972	-3.867257	8.741212	9.727277	0.169773	20.906110	12.520439	0.000000	-1.578426	1.342113	10.631017	-2.931296	1.785011	11.295456	-2.593197	3.263214	11.295456	-1.803984	3.263214	9.302140	-1.465727	2.736837	8.637701	-0.901913	2.078933	7.973263	-11.274543	15.182253	59.126528	0.000000	0.000000	-4.512032	-0.795565	-44.597819	-37.903953	-44.713102	-51.697149	141.656146	74.995558	-7.259442	13.414499	53.362461	38.546042	196.397952	0.035377	0.554664	-69.932224	-24.721627
2.542373	5.431015	-3.886534	111.828188	0.241715	0.495881	0.903060	2.012381	4.142340	-24.681419	7.470532	0.130385	16.328443	6.153116	0.000000	7.256497	-3.904534	9.011976	9.879385	0.172428	21.087693	12.307187	0.000000	-1.583850	1.340726	10.624995	-2.941368	1.783165	11.289057	-2.602107	3.259840	11.289057	-1.810182	3.259840	9.296871	-1.470763	2.734008	8.632809	-0.905012	2.076784	7.968746	-11.313282	15.166556	59.093035	0.000000	0.000000	-4.500584	-0.633799	-44.590661	-38.001985	-44.440870	-52.000864	141.808315	74.616846	-7.145870	13.396318	53.362000	38.487075	196.196329	0.035190	0.540873	-69.932159	-24.719912
2.559322	5.475639	-3.846336	111.796323	0.241626	0.495640	0.902642	1.951144	4.213739	-24.795258	7.474584	0.130456	16.250479	6.335907	0.000000	7.274175	-3.944241	9.326845	10.043043	0.175284	21.307424	12.047006	0.000000	-1.592347	1.343555	10.624780	-2.957147	1.786928	11.288828	-2.616067	3.266720	11.288828	-1.819893	3.266720	9.296682	-1.478653	2.739778	8.632633	-0.909867	2.081167	7.968585	-11.373975	15.198564	59.091837	0.000000	0.000000	-4.446729	-0.479036	-44.585943	-38.305460	-44.128441	-52.474963	141.943485	73.447698	-6.760594	13.211032	53.372415	38.421448	196.124017	0.034979	0.526747	-69.932110	-24.718468
2.576271	5.526995	-3.782874	111.812750	0.241430	0.495400	0.902315	1.871510	4.292538	-24.979820	7.484946	0.130637	16.181330	6.559452	0.000000	7.299788	-3.983525	9.691225	10.232089	0.178584	21.560419	11.779673	0.000000	-1.601871	1.350750	10.619176	-2.974835	1.796498	11.282875	-2.631714	3.284215	11.282875	-1.830779	3.284215	9.291779	-1.487498	2.754450	8.628081	-0.915309	2.092312	7.964382	-11.442007	15.279960	59.060672	0.000000	0.000000	-4.406975	-0.367459	-44.578495	-38.709547	-43.826157	-53.074895	142.024047	71.438084	-6.016103	13.012496	53.413321	38.353907	196.156599	0.034751	0.514712	-69.932032	-24.715953
2.593220	5.575724	-3.697032	111.866464	0.241168	0.495170	0.902112	1.775302	4.370858	-25.174602	7.497593	0.130858	16.128784	6.767986	0.000000	7.330707	-4.013588	10.098777	10.447198	0.182338	21.832063	11.481684	0.000000	-1.613339	1.360920	10.609621	-2.996132	1.810023	11.272722	-2.650555	3.308941	11.272722	-1.843885	3.308941	9.283418	-1.498147	2.775188	8.620317	-0.921862	2.108065	7.957216	-11.523920	15.394998	59.007529	0.000000	0.000000	-4.396204	-0.298214	-44.563382	-39.161817	-43.537150	-53.737891	142.059273	68.485281	-5.094025	12.966290	53.495330	38.302394	196.196523	0.034543	0.508026	-69.931936	-24.713558
